<svg width="17" height="17" viewBox="0 0 17 17" fill="none" xmlns="http://www.w3.org/2000/svg">
<path d="M11.8059 15.6935L11.7597 14.945L11.8059 15.6935ZM6.33268 5.82364L6.27619 6.57151C6.4795 6.58686 6.68029 6.51879 6.83234 6.38296C6.98439 6.24713 7.07458 6.05525 7.08216 5.85151L6.33268 5.82364ZM15.5254 12.3708L16.264 12.5007L15.5254 12.3708ZM11.7597 14.945C10.1685 15.043 8.53441 15.2333 6.93558 15.0478C5.37521 14.8668 3.93302 14.3318 2.75939 13.0181L1.64075 14.0174C3.12626 15.6803 4.95231 16.3278 6.76272 16.5378C8.53468 16.7434 10.3739 16.5332 11.852 16.4421L11.7597 14.945ZM2.75939 13.0181C1.61677 11.739 1.3858 10.0261 1.96459 8.70499C2.52252 7.43153 3.89677 6.39179 6.27619 6.57151L6.38916 5.07577C3.45773 4.85436 1.43611 6.17334 0.59067 8.10304C-0.233913 9.98513 0.124246 12.3198 1.64075 14.0174L2.75939 13.0181ZM11.852 16.4421C12.3848 16.4093 12.9662 16.3718 13.4961 16.2642C14.0257 16.1567 14.5862 15.9645 15.0342 15.5642L14.0349 14.4456C13.8709 14.5921 13.6086 14.7108 13.1976 14.7942C12.7869 14.8776 12.3101 14.911 11.7597 14.945L11.852 16.4421ZM16.264 12.5007C16.5206 11.0422 16.936 9.2382 16.9307 7.45437C16.9254 5.63182 16.4871 3.7446 15.0016 2.08172L13.8829 3.08104C15.0566 4.3948 15.4261 5.88795 15.4307 7.45877C15.4355 9.06832 15.0629 10.6707 14.7867 12.2409L16.264 12.5007ZM15.0016 2.08172C13.4851 0.384138 11.2054 -0.233983 9.2426 0.373987C7.23015 0.997339 5.69245 2.85802 5.5832 5.79577L7.08216 5.85151C7.17084 3.46696 8.35835 2.21819 9.68642 1.80683C11.0641 1.38008 12.7403 1.80198 13.8829 3.08104L15.0016 2.08172ZM14.7867 12.2409C14.6912 12.7839 14.6044 13.254 14.4754 13.6527C14.3464 14.0517 14.199 14.299 14.0349 14.4456L15.0342 15.5642C15.4823 15.1639 15.7363 14.6285 15.9026 14.1144C16.069 13.6 16.1716 13.0264 16.264 12.5007L14.7867 12.2409Z" fill="white"/>
</svg>
